<svg width="269" height="68" viewBox="0 0 269 68" fill="none" xmlns="http://www.w3.org/2000/svg">
<path fill-rule="evenodd" clip-rule="evenodd" d="M31.8078 0.639689C15.9954 1.47331 5.99533 7.86327 1.63402 19.9224C0.345082 23.4859 0.084322 26.4218 0.801749 29.2766C1.31516 31.3208 1.92518 32.0268 3.61336 32.5321L4.07341 32.6692L4.07813 34.8242C4.09029 40.7291 5.94263 45.97 9.66623 50.6367C10.4391 51.6061 10.4526 51.4399 9.54328 52.1235C6.58035 54.3488 5.23602 56.4524 5.61162 58.2757C6.18178 61.0468 8.25029 61.6953 10.9437 59.9477C16.04 56.6402 19.9676 54.642 22.2381 54.2015C26.8926 53.2976 28.7834 50.2178 26.1698 47.798C24.6518 46.3929 22.5036 46.2895 19.1502 47.4603C18.7212 47.6096 18.328 47.7318 18.2767 47.7318C17.7937 47.7318 14.7159 42.7767 14.4045 41.4993L14.3261 41.177L15.1577 41.6486C20.9107 44.9114 28.1106 45.0344 34.76 41.985C35.1187 41.8201 35.2065 41.887 37.8398 44.3264C40.9108 47.1725 43.0833 49.4578 47.0332 53.9988C50.2407 57.686 52.5072 58.8823 54.906 58.1541C58.3081 57.1219 58.656 53.4983 55.9335 47.4528C54.3946 44.0373 51.2527 42.3626 50.1455 44.369C49.7266 45.129 49.6733 45.1026 47.6014 43.1314C45.16 40.8089 44.0183 39.8651 42.8672 39.2186C42.3551 38.9302 41.9126 38.6572 41.8849 38.612C41.8565 38.566 42.5801 38.0702 43.492 37.5095C54.4784 30.7527 58.6587 21.4086 54.9114 11.9848C52.3241 5.47725 44.6384 1.20444 34.6532 0.72143C33.9865 0.689004 33.213 0.649822 32.934 0.63496C32.655 0.619423 32.1483 0.622125 31.8078 0.639689ZM34.8478 7.42012C39.6529 8.10647 45.0309 11.4139 46.5658 14.6261C49.274 20.296 45.8639 28.3856 38.8463 32.9381C36.6245 34.3797 35.018 34.9215 34.1527 34.5216C26.2603 30.8716 17.9815 30.0468 12.5116 32.3652C11.9111 32.6199 12.8859 28.5856 13.9201 26.5366C14.6781 25.0363 17.4546 21.0296 19.1367 19.0097C20.735 17.0912 19.0016 15.0788 16.248 15.6563C14.4362 16.036 10.6741 19.08 8.63603 21.8153C7.83483 22.8907 7.77876 22.8043 8.34149 21.364C12.0441 11.8888 23.5946 5.81232 34.8478 7.42012ZM92.4379 15.4848C88.1083 15.8097 85.2197 16.3785 83.1275 17.3168L82.3824 17.6512L82.3142 18.4774C82.2763 18.9314 82.1703 20.3919 82.0784 21.7234C81.9865 23.0549 81.8811 24.3344 81.8447 24.5668C81.765 25.0748 81.7737 25.0761 82.9904 24.7505C84.2962 24.4019 85.8979 24.0966 85.9729 24.1824C86.0438 24.2634 85.9324 32.4321 85.7432 41.0331C85.6777 44.0055 85.6243 47.1846 85.625 48.098L85.6264 49.7585H84.1733H82.7208L82.6486 50.969C82.6087 51.6344 82.5297 52.9396 82.4723 53.8685C82.4148 54.7973 82.3533 55.912 82.3365 56.345L82.3047 57.1334H90.6369H98.9683L99.096 53.5307C99.1663 51.5486 99.2014 49.8895 99.1737 49.8429C99.1467 49.797 98.4461 49.7585 97.6172 49.7585C96.7884 49.7585 96.0912 49.7206 96.0669 49.674C96.0108 49.5653 96.179 43.4468 96.2398 43.3861C96.2655 43.3611 97.1173 43.2915 98.134 43.232C111.401 42.4565 117.533 36.4786 114.827 26.9589C112.651 19.3056 103.564 14.6484 92.4379 15.4848ZM219.204 15.6415C215.342 16.9088 216.211 22.707 220.556 24.6613C221.554 25.1099 221.572 25.1619 221.113 26.3205C220.48 27.9229 219.59 29.1665 218.234 30.346L217.706 30.8061L220.268 32.5139C223.226 34.4858 222.954 34.4081 223.955 33.5697C228 30.1805 229.537 23.8135 227.345 19.5279C225.822 16.5514 221.997 14.7248 219.204 15.6415ZM240.27 15.4827C234.199 16.0603 230.718 18.6713 229.92 23.2434C229.004 28.491 231.632 33.867 236.723 37.1636C238.31 38.1918 238.84 38.4965 241 39.6273C247.097 42.8193 248.878 44.7371 248.422 47.6217C247.844 51.2778 241.355 51.3338 237.883 47.7129L237.523 47.338L237.396 44.4703C237.326 42.8929 237.244 41.5634 237.214 41.5148C237.185 41.4668 235.567 41.427 233.62 41.427H230.08V49.3085V57.1894H233.795H237.511V56.4017C237.511 55.968 237.529 55.6134 237.552 55.6134C237.574 55.6134 238.026 55.8167 238.557 56.0653C241.189 57.2989 243.639 57.8062 246.968 57.8076C249.585 57.8089 250.903 57.6279 252.879 56.9955C258.834 55.0919 261.208 49.7368 258.893 43.4293C257.499 39.6334 255.023 37.5163 248.324 34.3919C241.791 31.3452 239.446 28.6214 240.491 25.2957C241.397 22.4165 245.999 22.4253 249.023 25.3119L249.896 26.1448V28.5504V30.9561L253.639 30.954C255.698 30.9534 257.439 30.9155 257.506 30.8696C257.589 30.8149 257.675 29.1659 257.766 25.8895C257.841 23.1954 257.933 19.915 257.97 18.599L258.037 16.2069H254.317H250.597L250.521 16.7136C250.43 17.3202 250.516 17.3128 249.361 16.8169C247.137 15.8617 242.871 15.2355 240.27 15.4827ZM61.2311 16.2724C61.1541 16.4738 61.2953 23.4156 61.3798 23.5514C61.4088 23.5987 62.0688 23.6379 62.8457 23.6379H64.2582L64.19 25.6922C64.1529 26.8224 64.0704 31.5215 64.0069 36.1354C63.9434 40.7487 63.8617 45.7011 63.8252 47.1407L63.7583 49.7585H62.3661C61.0129 49.7585 60.9717 49.7659 60.9197 50.0118C60.8697 50.2489 60.659 54.5852 60.6123 56.345L60.5914 57.1334L69.0411 57.1624L77.4908 57.1908L77.5577 56.5429C77.5941 56.1862 77.6583 54.5143 77.7009 52.8268L77.7765 49.7585H76.185H74.5927L74.5934 47.7041C74.5941 45.3012 74.7751 32.5159 74.8818 27.2723L74.9562 23.6446L76.266 23.6129L77.5759 23.5811L77.5333 21.2194C77.5097 19.9204 77.459 18.2484 77.4205 17.504L77.351 16.1502L69.3255 16.1218C62.056 16.0954 61.294 16.1096 61.2311 16.2724ZM116.425 19.8035C116.38 21.7822 116.376 23.4541 116.416 23.519C116.461 23.592 117.027 23.6379 117.877 23.6379H119.265L119.21 26.7623C119.179 28.4802 119.096 34.3453 119.025 39.7942L118.897 49.7024L117.49 49.7585L116.082 49.8152L116.012 51.0535C115.973 51.7344 115.922 53.3814 115.899 54.7129L115.857 57.1334L130.793 57.1617L145.729 57.1908L145.804 56.1484C145.846 55.5756 145.965 52.7889 146.069 49.9557L146.258 44.8047H143.318H140.378L140.3 45.9268C140.163 47.9223 139.65 48.8715 138.407 49.4335C137.82 49.699 137.759 49.7031 133.713 49.7362L129.614 49.7693L129.687 45.1762C129.728 42.6497 129.789 37.0866 129.822 32.8138C129.856 28.541 129.91 24.7302 129.943 24.3452L130.004 23.6446L131.262 23.6129L132.521 23.5811L132.593 21.7234C132.633 20.702 132.696 19.0428 132.733 18.0363L132.8 16.2069H124.654H116.507L116.425 19.8035ZM150.254 19.9224V23.6379H151.679H153.104L153.028 28.62C152.986 31.36 152.904 35.5275 152.846 37.8804C152.787 40.2333 152.706 43.8691 152.665 45.9585L152.592 49.7585H151.208H149.825L149.758 50.913C149.721 51.5473 149.677 53.2071 149.662 54.6001L149.634 57.1334L164.974 57.1617L180.315 57.1908L180.317 56.7679C180.317 56.5355 180.366 55.256 180.425 53.9245C180.734 46.8901 180.779 44.8831 180.631 44.7885C180.449 44.6736 175.128 44.6642 174.953 44.7783C174.88 44.8263 174.806 45.3532 174.776 46.0463C174.697 47.8636 174.138 48.8796 172.898 49.4592C172.392 49.6956 172.253 49.7024 167.874 49.7024H163.37L163.396 48.9708C163.41 48.5681 163.454 46.2247 163.494 43.763L163.565 39.2875H164.909C167.507 39.2875 168.718 40.2022 168.718 42.1633V42.6652H171.415H174.112L174.169 42.2998C174.2 42.0985 174.254 40.084 174.288 37.8243C174.323 35.5639 174.383 33.0941 174.421 32.3355L174.491 30.9561H171.676H168.861L168.805 31.7329C168.716 32.9827 168.272 33.4306 166.904 33.6528C166.002 33.7987 163.8 33.8068 163.712 33.6643C163.675 33.6055 163.681 31.3256 163.723 28.5977L163.8 23.6379H167.48C172.603 23.6379 172.819 23.7642 172.838 26.7717L172.849 28.4228L175.845 28.4525L178.841 28.4829L178.897 28.1147C178.929 27.9127 179.008 25.6193 179.073 23.0184C179.138 20.4176 179.221 17.8208 179.257 17.2479L179.323 16.2069H164.788H150.254V19.9224ZM181.728 16.7413C181.756 17.0358 181.856 18.5936 181.949 20.2034C182.174 24.0547 182.002 23.6379 183.363 23.6379H184.492L185.148 25.0167C185.51 25.7753 186.247 27.3081 186.789 28.4228C187.802 30.5088 188.97 32.9239 190.111 35.291C190.469 36.0341 191.325 37.8013 192.013 39.2186L193.263 41.7951V43.9015C193.263 45.0594 193.23 46.8516 193.189 47.8831L193.115 49.7585H191.737H190.359L190.286 51.3629C190.246 52.2458 190.202 53.9049 190.19 55.0507L190.167 57.1334L198.514 57.1624L206.863 57.1908L206.936 55.4736C206.976 54.5285 207.02 52.8693 207.032 51.7851L207.055 49.8152L205.212 49.7841L203.37 49.753L203.453 45.8059L203.536 41.8586L204.265 40.2637C204.667 39.3862 205.173 38.2884 205.391 37.8243C205.61 37.3595 206.586 35.2316 207.562 33.0955C208.537 30.9588 209.585 28.6788 209.891 28.0289C210.195 27.3784 210.77 26.1259 211.167 25.2457L211.887 23.6446L213.074 23.6129L214.261 23.5811L214.242 22.8495C214.222 22.0504 213.891 17.4553 213.799 16.6852L213.74 16.2069H207.715H201.689L201.755 16.9102C201.791 17.2972 201.9 18.9314 201.998 20.5412C202.204 23.9277 202.079 23.619 203.249 23.6609L204.171 23.694L203.904 24.3695C203.757 24.7411 203.46 25.501 203.245 26.0584C203.029 26.6157 202.565 27.806 202.213 28.7045C201.86 29.6023 201.344 30.9196 201.065 31.6316C200.223 33.7825 200.43 33.7893 199.453 31.5755C198.624 29.6948 196.078 23.7318 196.078 23.6703C196.078 23.6521 196.484 23.6379 196.982 23.6379C197.715 23.6379 197.9 23.6028 197.957 23.4541C198.017 23.2981 197.818 19.8886 197.582 17.023L197.515 16.2069H189.596H181.676L181.728 16.7413ZM264.108 16.3211C260.809 17.0074 260.27 21.5248 263.321 22.913C266.771 24.4837 269.891 20.3966 267.486 17.458C266.77 16.5832 265.272 16.0786 264.108 16.3211ZM265.537 17.1047C267.144 17.5654 267.915 19.5907 267.071 21.1343C266.194 22.7381 263.966 22.9745 262.848 21.5822C261.178 19.5002 263.046 16.39 265.537 17.1047ZM263.462 17.9154C263.428 18.0025 263.415 18.8821 263.432 19.8704L263.463 21.6673L263.829 21.7025L264.195 21.7376V20.8864C264.195 19.6583 264.521 19.6556 265.126 20.879C265.528 21.6903 265.56 21.7234 265.939 21.7234C266.423 21.7234 266.423 21.7504 265.932 20.8722C265.539 20.1697 265.512 19.9224 265.828 19.9224C266.363 19.9224 266.528 18.5673 266.048 18.116C265.693 17.7823 263.575 17.6181 263.462 17.9154ZM265.518 18.6497C265.819 19.0557 265.524 19.3725 264.777 19.4448L264.195 19.5002V18.9983C264.195 18.722 264.233 18.4571 264.279 18.4105C264.422 18.2653 265.369 18.4484 265.518 18.6497ZM98.2361 23.6413C101.991 24.4344 104.157 26.4948 104.65 29.7435C105.205 33.4056 101.921 35.8828 96.4763 35.9091C96.2378 35.9098 96.2351 35.8821 96.1662 32.6733C96.1277 30.8925 96.0655 28.0809 96.0284 26.4245L95.9601 23.4123L96.5634 23.4143C96.8951 23.415 97.6477 23.5176 98.2361 23.6413ZM25.278 36.3624C26.9642 36.5374 29.4488 37.2359 29.4752 37.5426C29.5164 38.031 26.8331 38.5492 25.0801 38.3911C23.2656 38.2283 19.7447 37.2231 19.9304 36.9218C20.1797 36.5192 23.4689 36.1753 25.278 36.3624ZM25.6158 55.3952C24.6782 55.4736 23.7871 55.6911 22.6205 56.1255C12.921 59.741 8.91503 63.3646 10.9599 66.6734C12.1745 68.6379 14.4464 68.4305 18.4875 65.9857C19.4211 65.4202 20.2202 64.9582 20.2628 64.9582C20.306 64.9582 20.6789 64.7609 21.0924 64.5198C21.8828 64.059 23.5723 63.2727 25.1402 62.637C28.2342 61.3819 29.4475 60.553 29.8792 59.3985C30.7911 56.9624 28.8348 55.1256 25.6158 55.3952Z" fill="#ffffff"/>
</svg>
